<svg xmlns="http://www.w3.org/2000/svg" viewBox="0 0 1200 1200"><defs><linearGradient id="gold" x1="0" x2="1"><stop stop-color="#9b6a00"/><stop offset=".45" stop-color="#f2ca55"/><stop offset="1" stop-color="#7c4c00"/></linearGradient><linearGradient id="silver" x1="0" x2="1"><stop stop-color="#696969"/><stop offset=".5" stop-color="#f2f2f2"/><stop offset="1" stop-color="#555"/></linearGradient></defs><g transform="translate(600 560)"><path d="M0-360c-150 80-170 235-80 320 35 33 78 47 123 37-80-45-95-120-28-205 70 115 168 148 224 67 53-76 2-164-96-180 68 60 72 115 22 160-44-87-83-151-165-199z" fill="#e2872c"/><rect x="-190" y="225" width="380" height="120" rx="18" fill="#111"/><rect x="-125" y="145" width="250" height="90" rx="15" fill="url(#gold)"/></g></svg>